<mxfile host="app.diagrams.net" modified="2023-09-18T21:06:55.235Z" agent="Mozilla/5.0 (Macintosh; Intel Mac OS X 10_15_7) AppleWebKit/605.1.15 (KHTML, like Gecko) Version/16.6 Safari/605.1.15" etag="cIL0PzFwpH_1M-k8qpzO" version="21.7.5" type="github">
  <diagram id="C5RBs43oDa-KdzZeNtuy" name="Page-1">
    <mxGraphModel dx="1683" dy="670" grid="1" gridSize="10" guides="1" tooltips="1" connect="1" arrows="1" fold="1" page="1" pageScale="1" pageWidth="827" pageHeight="1169" math="0" shadow="0">
      <root>
        <mxCell id="WIyWlLk6GJQsqaUBKTNV-0" />
        <mxCell id="WIyWlLk6GJQsqaUBKTNV-1" parent="WIyWlLk6GJQsqaUBKTNV-0" />
        <mxCell id="235y1zTyB91oYiUdaGt8-4" value="Residents and City offical" style="shape=umlActor;verticalLabelPosition=bottom;verticalAlign=top;html=1;outlineConnect=0;" parent="WIyWlLk6GJQsqaUBKTNV-1" vertex="1">
          <mxGeometry x="30" y="190" width="30" height="60" as="geometry" />
        </mxCell>
        <mxCell id="235y1zTyB91oYiUdaGt8-7" value="" style="endArrow=classic;html=1;rounded=0;entryX=-0.008;entryY=0.613;entryDx=0;entryDy=0;exitX=0.5;exitY=0.5;exitDx=0;exitDy=0;exitPerimeter=0;entryPerimeter=0;" parent="WIyWlLk6GJQsqaUBKTNV-1" source="235y1zTyB91oYiUdaGt8-4" target="235y1zTyB91oYiUdaGt8-11" edge="1">
          <mxGeometry width="50" height="50" relative="1" as="geometry">
            <mxPoint x="390" y="370" as="sourcePoint" />
            <mxPoint x="150" y="190" as="targetPoint" />
          </mxGeometry>
        </mxCell>
        <mxCell id="235y1zTyB91oYiUdaGt8-8" value="" style="endArrow=classic;html=1;rounded=0;exitX=0.5;exitY=0.5;exitDx=0;exitDy=0;exitPerimeter=0;entryX=0;entryY=0.5;entryDx=0;entryDy=0;" parent="WIyWlLk6GJQsqaUBKTNV-1" source="235y1zTyB91oYiUdaGt8-4" edge="1">
          <mxGeometry width="50" height="50" relative="1" as="geometry">
            <mxPoint x="390" y="370" as="sourcePoint" />
            <mxPoint x="160" y="250" as="targetPoint" />
          </mxGeometry>
        </mxCell>
        <mxCell id="235y1zTyB91oYiUdaGt8-9" value="" style="endArrow=open;dashed=1;html=1;rounded=0;exitX=0;exitY=0.5;exitDx=0;exitDy=0;entryX=0.433;entryY=1.013;entryDx=0;entryDy=0;endFill=0;entryPerimeter=0;" parent="WIyWlLk6GJQsqaUBKTNV-1" target="235y1zTyB91oYiUdaGt8-12" edge="1">
          <mxGeometry width="50" height="50" relative="1" as="geometry">
            <mxPoint x="190" y="360" as="sourcePoint" />
            <mxPoint x="220" y="270" as="targetPoint" />
          </mxGeometry>
        </mxCell>
        <mxCell id="235y1zTyB91oYiUdaGt8-10" value="Extends" style="text;html=1;strokeColor=none;fillColor=none;align=center;verticalAlign=middle;whiteSpace=wrap;rounded=0;" parent="WIyWlLk6GJQsqaUBKTNV-1" vertex="1">
          <mxGeometry x="140" y="290" width="60" height="30" as="geometry" />
        </mxCell>
        <mxCell id="235y1zTyB91oYiUdaGt8-11" value="View Hotspots" style="ellipse;whiteSpace=wrap;html=1;" parent="WIyWlLk6GJQsqaUBKTNV-1" vertex="1">
          <mxGeometry x="150" y="120" width="120" height="80" as="geometry" />
        </mxCell>
        <mxCell id="235y1zTyB91oYiUdaGt8-12" value="Report SLF" style="ellipse;whiteSpace=wrap;html=1;" parent="WIyWlLk6GJQsqaUBKTNV-1" vertex="1">
          <mxGeometry x="160" y="210" width="120" height="80" as="geometry" />
        </mxCell>
        <mxCell id="235y1zTyB91oYiUdaGt8-13" value="Detect Hotspots" style="ellipse;whiteSpace=wrap;html=1;" parent="WIyWlLk6GJQsqaUBKTNV-1" vertex="1">
          <mxGeometry x="340" y="300" width="120" height="80" as="geometry" />
        </mxCell>
        <mxCell id="235y1zTyB91oYiUdaGt8-14" value="Real time Data" style="ellipse;whiteSpace=wrap;html=1;" parent="WIyWlLk6GJQsqaUBKTNV-1" vertex="1">
          <mxGeometry x="320" y="90" width="120" height="80" as="geometry" />
        </mxCell>
        <mxCell id="235y1zTyB91oYiUdaGt8-15" value="Marking Hotspot as resolved" style="ellipse;whiteSpace=wrap;html=1;" parent="WIyWlLk6GJQsqaUBKTNV-1" vertex="1">
          <mxGeometry x="354" y="210" width="120" height="80" as="geometry" />
        </mxCell>
        <mxCell id="235y1zTyB91oYiUdaGt8-16" value="" style="endArrow=open;dashed=1;html=1;rounded=0;exitX=0.008;exitY=0.613;exitDx=0;exitDy=0;entryX=1.025;entryY=0.625;entryDx=0;entryDy=0;endFill=0;entryPerimeter=0;exitPerimeter=0;" parent="WIyWlLk6GJQsqaUBKTNV-1" source="235y1zTyB91oYiUdaGt8-15" target="235y1zTyB91oYiUdaGt8-12" edge="1">
          <mxGeometry width="50" height="50" relative="1" as="geometry">
            <mxPoint x="200" y="370" as="sourcePoint" />
            <mxPoint x="222" y="301" as="targetPoint" />
          </mxGeometry>
        </mxCell>
        <mxCell id="235y1zTyB91oYiUdaGt8-17" value="Extends" style="text;html=1;strokeColor=none;fillColor=none;align=center;verticalAlign=middle;whiteSpace=wrap;rounded=0;" parent="WIyWlLk6GJQsqaUBKTNV-1" vertex="1">
          <mxGeometry x="290" y="220" width="60" height="30" as="geometry" />
        </mxCell>
        <mxCell id="235y1zTyB91oYiUdaGt8-18" value="" style="endArrow=open;dashed=1;html=1;rounded=0;exitX=1;exitY=0.35;exitDx=0;exitDy=0;entryX=0;entryY=0.5;entryDx=0;entryDy=0;endFill=0;exitPerimeter=0;" parent="WIyWlLk6GJQsqaUBKTNV-1" source="235y1zTyB91oYiUdaGt8-11" target="235y1zTyB91oYiUdaGt8-14" edge="1">
          <mxGeometry width="50" height="50" relative="1" as="geometry">
            <mxPoint x="365" y="269" as="sourcePoint" />
            <mxPoint x="293" y="270" as="targetPoint" />
          </mxGeometry>
        </mxCell>
        <mxCell id="235y1zTyB91oYiUdaGt8-19" value="Includes" style="text;html=1;strokeColor=none;fillColor=none;align=center;verticalAlign=middle;whiteSpace=wrap;rounded=0;" parent="WIyWlLk6GJQsqaUBKTNV-1" vertex="1">
          <mxGeometry x="260" y="100" width="60" height="30" as="geometry" />
        </mxCell>
        <mxCell id="235y1zTyB91oYiUdaGt8-20" value="" style="endArrow=open;dashed=1;html=1;rounded=0;exitX=0.942;exitY=0.85;exitDx=0;exitDy=0;entryX=0.033;entryY=0.363;entryDx=0;entryDy=0;endFill=0;entryPerimeter=0;exitPerimeter=0;" parent="WIyWlLk6GJQsqaUBKTNV-1" source="235y1zTyB91oYiUdaGt8-12" target="235y1zTyB91oYiUdaGt8-13" edge="1">
          <mxGeometry width="50" height="50" relative="1" as="geometry">
            <mxPoint x="375" y="279" as="sourcePoint" />
            <mxPoint x="303" y="280" as="targetPoint" />
          </mxGeometry>
        </mxCell>
        <mxCell id="235y1zTyB91oYiUdaGt8-21" value="Includes" style="text;html=1;strokeColor=none;fillColor=none;align=center;verticalAlign=middle;whiteSpace=wrap;rounded=0;" parent="WIyWlLk6GJQsqaUBKTNV-1" vertex="1">
          <mxGeometry x="300" y="270" width="60" height="30" as="geometry" />
        </mxCell>
        <mxCell id="7-_u9JshkXyS4Gg8WHtf-0" value="Confirm SLF Sighting&lt;br&gt;" style="ellipse;whiteSpace=wrap;html=1;" vertex="1" parent="WIyWlLk6GJQsqaUBKTNV-1">
          <mxGeometry x="130" y="360" width="120" height="80" as="geometry" />
        </mxCell>
      </root>
    </mxGraphModel>
  </diagram>
</mxfile>
